<?xml version="1.0" encoding="utf-8"?>
<!-- Generator: Adobe Illustrator 24.0.0, SVG Export Plug-In . SVG Version: 6.00 Build 0)  -->
<svg version="1.1" id="Слой_1" xmlns="http://www.w3.org/2000/svg" xmlns:xlink="http://www.w3.org/1999/xlink" x="0px" y="0px"
	 viewBox="0 0 49.6 18" style="enable-background:new 0 0 49.6 18;" xml:space="preserve">
<style type="text/css">
	.st0{fill-rule:evenodd;clip-rule:evenodd;fill:#0157A5;}
</style>
<title>logo_blue</title>
<g id="Слой_2_1_">
	<g id="Layer_1">
		<path class="st0" d="M48,0.2c-4.4,0.3-8.9,0.6-15,0.9S19.3,1.8,13.5,1.7C9,1.5,4.4,1,0,0.2c1.4,1.3,3,2.4,4.8,3.1
			c3.4,1.1,6.9,1.6,10.5,1.4C21.1,4.5,26.8,3.9,32.5,3C38.2,2.2,43,1.2,48,0.2"/>
		<path class="st0" d="M46.8,3.4c-6.5,1.1-13,2.2-17.5,3s-6.8,1-9.1,1.2c-2.1,0.2-4.3,0.2-6.4,0c-1.6-0.2-3.2-0.4-4.7-0.8l0,0
			C11,7.7,13,8.5,15.1,9c3,0.7,6.1,1,9.2,0.9c3.2-0.1,6.3-0.4,9.5-0.9l5.3-0.6c-0.8,1-1.3,2.1-1.7,3.3c-0.3,1.2-0.2,2.4,0.2,3.6
			c0.3,0.8,0.8,1.6,1.5,2.2c0.4-1.9,1-3.7,1.7-5.5c0.8-1.8,1.8-3.4,3-5C44.7,5.7,45.7,4.5,46.8,3.4"/>
	</g>
</g>
</svg>
