<svg width="68" height="68" viewBox="0 0 68 68" fill="none" xmlns="http://www.w3.org/2000/svg">
<path d="M33.9666 0.666687C15.5666 0.666687 0.633301 15.6 0.633301 34C0.633301 52.4 15.5666 67.3334 33.9666 67.3334C52.3666 67.3334 67.3 52.4 67.3 34C67.3 15.6 52.3666 0.666687 33.9666 0.666687ZM46 21.8C49.5666 21.8 52.4333 24.6667 52.4333 28.2334C52.4333 31.8 49.5666 34.6667 46 34.6667C42.4333 34.6667 39.5666 31.8 39.5666 28.2334C39.5333 24.6667 42.4333 21.8 46 21.8ZM26 16.5334C30.3333 16.5334 33.8666 20.0667 33.8666 24.4C33.8666 28.7334 30.3333 32.2667 26 32.2667C21.6666 32.2667 18.1333 28.7334 18.1333 24.4C18.1333 20.0334 21.6333 16.5334 26 16.5334ZM26 46.9667V59.4667C18 56.9667 11.6666 50.8 8.86663 42.9334C12.3666 39.2 21.1 37.3 26 37.3C27.7666 37.3 30 37.5667 32.3333 38.0334C26.8666 40.9334 26 44.7667 26 46.9667ZM33.9666 60.6667C33.0666 60.6667 32.2 60.6334 31.3333 60.5333V46.9667C31.3333 42.2334 41.1333 39.8667 46 39.8667C49.5666 39.8667 55.7333 41.1667 58.8 43.7C54.9 53.6 45.2666 60.6667 33.9666 60.6667Z" fill="#0157A5"/>
</svg>
